<svg class="rich-terminal" viewBox="0 0 1848 562.4" xmlns="http://www.w3.org/2000/svg">
    <!-- Generated with Rich https://www.textualize.io -->
    <style>

    @font-face {
        font-family: "Fira Code";
        src: local("FiraCode-Regular"),
                url("https://cdnjs.cloudflare.com/ajax/libs/firacode/6.2.0/woff2/FiraCode-Regular.woff2") format("woff2"),
                url("https://cdnjs.cloudflare.com/ajax/libs/firacode/6.2.0/woff/FiraCode-Regular.woff") format("woff");
        font-style: normal;
        font-weight: 400;
    }
    @font-face {
        font-family: "Fira Code";
        src: local("FiraCode-Bold"),
                url("https://cdnjs.cloudflare.com/ajax/libs/firacode/6.2.0/woff2/FiraCode-Bold.woff2") format("woff2"),
                url("https://cdnjs.cloudflare.com/ajax/libs/firacode/6.2.0/woff/FiraCode-Bold.woff") format("woff");
        font-style: bold;
        font-weight: 700;
    }

    .terminal-115756718-matrix {
        font-family: Fira Code, monospace;
        font-size: 20px;
        line-height: 24.4px;
        font-variant-east-asian: full-width;
    }

    .terminal-115756718-title {
        font-size: 18px;
        font-weight: bold;
        font-family: arial;
    }

    .terminal-115756718-r1 { fill: #c5c8c6 }
.terminal-115756718-r2 { fill: #e0e0e0 }
.terminal-115756718-r3 { fill: #a0a3a6 }
.terminal-115756718-r4 { fill: #e0e0e0;font-weight: bold }
.terminal-115756718-r5 { fill: #58d1eb;font-weight: bold }
.terminal-115756718-r6 { fill: #98e024;font-weight: bold }
.terminal-115756718-r7 { fill: #98e024 }
.terminal-115756718-r8 { fill: #ddedf9;font-weight: bold }
.terminal-115756718-r9 { fill: #92c5ec;font-weight: bold }
.terminal-115756718-r10 { fill: #f4005f;font-weight: bold }
.terminal-115756718-r11 { fill: #fd971f }
.terminal-115756718-r12 { fill: #f4005f }
.terminal-115756718-r13 { fill: #ffa62b;font-weight: bold }
.terminal-115756718-r14 { fill: #495259 }
    </style>

    <defs>
    <clipPath id="terminal-115756718-clip-terminal">
      <rect x="0" y="0" width="1829.0" height="511.4" />
    </clipPath>
    <clipPath id="terminal-115756718-line-0">
    <rect x="0" y="1.5" width="1830" height="24.65"/>
            </clipPath>
<clipPath id="terminal-115756718-line-1">
    <rect x="0" y="25.9" width="1830" height="24.65"/>
            </clipPath>
<clipPath id="terminal-115756718-line-2">
    <rect x="0" y="50.3" width="1830" height="24.65"/>
            </clipPath>
<clipPath id="terminal-115756718-line-3">
    <rect x="0" y="74.7" width="1830" height="24.65"/>
            </clipPath>
<clipPath id="terminal-115756718-line-4">
    <rect x="0" y="99.1" width="1830" height="24.65"/>
            </clipPath>
<clipPath id="terminal-115756718-line-5">
    <rect x="0" y="123.5" width="1830" height="24.65"/>
            </clipPath>
<clipPath id="terminal-115756718-line-6">
    <rect x="0" y="147.9" width="1830" height="24.65"/>
            </clipPath>
<clipPath id="terminal-115756718-line-7">
    <rect x="0" y="172.3" width="1830" height="24.65"/>
            </clipPath>
<clipPath id="terminal-115756718-line-8">
    <rect x="0" y="196.7" width="1830" height="24.65"/>
            </clipPath>
<clipPath id="terminal-115756718-line-9">
    <rect x="0" y="221.1" width="1830" height="24.65"/>
            </clipPath>
<clipPath id="terminal-115756718-line-10">
    <rect x="0" y="245.5" width="1830" height="24.65"/>
            </clipPath>
<clipPath id="terminal-115756718-line-11">
    <rect x="0" y="269.9" width="1830" height="24.65"/>
            </clipPath>
<clipPath id="terminal-115756718-line-12">
    <rect x="0" y="294.3" width="1830" height="24.65"/>
            </clipPath>
<clipPath id="terminal-115756718-line-13">
    <rect x="0" y="318.7" width="1830" height="24.65"/>
            </clipPath>
<clipPath id="terminal-115756718-line-14">
    <rect x="0" y="343.1" width="1830" height="24.65"/>
            </clipPath>
<clipPath id="terminal-115756718-line-15">
    <rect x="0" y="367.5" width="1830" height="24.65"/>
            </clipPath>
<clipPath id="terminal-115756718-line-16">
    <rect x="0" y="391.9" width="1830" height="24.65"/>
            </clipPath>
<clipPath id="terminal-115756718-line-17">
    <rect x="0" y="416.3" width="1830" height="24.65"/>
            </clipPath>
<clipPath id="terminal-115756718-line-18">
    <rect x="0" y="440.7" width="1830" height="24.65"/>
            </clipPath>
<clipPath id="terminal-115756718-line-19">
    <rect x="0" y="465.1" width="1830" height="24.65"/>
            </clipPath>
    </defs>

    <rect fill="#292929" stroke="rgba(255,255,255,0.35)" stroke-width="1" x="1" y="1" width="1846" height="560.4" rx="8"/><text class="terminal-115756718-title" fill="#c5c8c6" text-anchor="middle" x="923" y="27">LogTerm</text>
            <g transform="translate(26,22)">
            <circle cx="0" cy="0" r="7" fill="#ff5f57"/>
            <circle cx="22" cy="0" r="7" fill="#febc2e"/>
            <circle cx="44" cy="0" r="7" fill="#28c840"/>
            </g>
        
    <g transform="translate(9, 41)" clip-path="url(#terminal-115756718-clip-terminal)">
    <rect fill="#242f38" x="0" y="1.5" width="12.2" height="24.65" shape-rendering="crispEdges"/><rect fill="#242f38" x="12.2" y="1.5" width="12.2" height="24.65" shape-rendering="crispEdges"/><rect fill="#242f38" x="24.4" y="1.5" width="61" height="24.65" shape-rendering="crispEdges"/><rect fill="#242f38" x="85.4" y="1.5" width="12.2" height="24.65" shape-rendering="crispEdges"/><rect fill="#242f38" x="97.6" y="1.5" width="475.8" height="24.65" shape-rendering="crispEdges"/><rect fill="#242f38" x="573.4" y="1.5" width="85.4" height="24.65" shape-rendering="crispEdges"/><rect fill="#242f38" x="658.8" y="1.5" width="36.6" height="24.65" shape-rendering="crispEdges"/><rect fill="#242f38" x="695.4" y="1.5" width="524.6" height="24.65" shape-rendering="crispEdges"/><rect fill="#242f38" x="1220" y="1.5" width="488" height="24.65" shape-rendering="crispEdges"/><rect fill="#242f38" x="1708" y="1.5" width="12.2" height="24.65" shape-rendering="crispEdges"/><rect fill="#242f38" x="1720.2" y="1.5" width="0" height="24.65" shape-rendering="crispEdges"/><rect fill="#242f38" x="1720.2" y="1.5" width="97.6" height="24.65" shape-rendering="crispEdges"/><rect fill="#242f38" x="1817.8" y="1.5" width="12.2" height="24.65" shape-rendering="crispEdges"/><rect fill="#2d3740" x="0" y="25.9" width="329.4" height="24.65" shape-rendering="crispEdges"/><rect fill="#2d3740" x="329.4" y="25.9" width="122" height="24.65" shape-rendering="crispEdges"/><rect fill="#2d3740" x="451.4" y="25.9" width="695.4" height="24.65" shape-rendering="crispEdges"/><rect fill="#2d3740" x="1146.8" y="25.9" width="683.2" height="24.65" shape-rendering="crispEdges"/><rect fill="#272727" x="0" y="50.3" width="12.2" height="24.65" shape-rendering="crispEdges"/><rect fill="#272727" x="12.2" y="50.3" width="48.8" height="24.65" shape-rendering="crispEdges"/><rect fill="#272727" x="61" y="50.3" width="12.2" height="24.65" shape-rendering="crispEdges"/><rect fill="#272727" x="73.2" y="50.3" width="24.4" height="24.65" shape-rendering="crispEdges"/><rect fill="#272727" x="97.6" y="50.3" width="12.2" height="24.65" shape-rendering="crispEdges"/><rect fill="#272727" x="109.8" y="50.3" width="24.4" height="24.65" shape-rendering="crispEdges"/><rect fill="#272727" x="134.2" y="50.3" width="12.2" height="24.65" shape-rendering="crispEdges"/><rect fill="#272727" x="146.4" y="50.3" width="97.6" height="24.65" shape-rendering="crispEdges"/><rect fill="#272727" x="244" y="50.3" width="12.2" height="24.65" shape-rendering="crispEdges"/><rect fill="#272727" x="256.2" y="50.3" width="61" height="24.65" shape-rendering="crispEdges"/><rect fill="#272727" x="317.2" y="50.3" width="12.2" height="24.65" shape-rendering="crispEdges"/><rect fill="#272727" x="329.4" y="50.3" width="12.2" height="24.65" shape-rendering="crispEdges"/><rect fill="#272727" x="341.6" y="50.3" width="48.8" height="24.65" shape-rendering="crispEdges"/><rect fill="#272727" x="390.4" y="50.3" width="61" height="24.65" shape-rendering="crispEdges"/><rect fill="#272727" x="451.4" y="50.3" width="195.2" height="24.65" shape-rendering="crispEdges"/><rect fill="#272727" x="646.6" y="50.3" width="146.4" height="24.65" shape-rendering="crispEdges"/><rect fill="#272727" x="793" y="50.3" width="353.8" height="24.65" shape-rendering="crispEdges"/><rect fill="#272727" x="1146.8" y="50.3" width="683.2" height="24.65" shape-rendering="crispEdges"/><rect fill="#0178d4" x="0" y="74.7" width="12.2" height="24.65" shape-rendering="crispEdges"/><rect fill="#0178d4" x="12.2" y="74.7" width="48.8" height="24.65" shape-rendering="crispEdges"/><rect fill="#0178d4" x="61" y="74.7" width="12.2" height="24.65" shape-rendering="crispEdges"/><rect fill="#0178d4" x="73.2" y="74.7" width="24.4" height="24.65" shape-rendering="crispEdges"/><rect fill="#0178d4" x="97.6" y="74.7" width="12.2" height="24.65" shape-rendering="crispEdges"/><rect fill="#0178d4" x="109.8" y="74.7" width="24.4" height="24.65" shape-rendering="crispEdges"/><rect fill="#0178d4" x="134.2" y="74.7" width="195.2" height="24.65" shape-rendering="crispEdges"/><rect fill="#0178d4" x="329.4" y="74.7" width="12.2" height="24.65" shape-rendering="crispEdges"/><rect fill="#0178d4" x="341.6" y="74.7" width="61" height="24.65" shape-rendering="crispEdges"/><rect fill="#0178d4" x="402.6" y="74.7" width="48.8" height="24.65" shape-rendering="crispEdges"/><rect fill="#0178d4" x="451.4" y="74.7" width="695.4" height="24.65" shape-rendering="crispEdges"/><rect fill="#0178d4" x="1146.8" y="74.7" width="683.2" height="24.65" shape-rendering="crispEdges"/><rect fill="#272727" x="0" y="99.1" width="12.2" height="24.65" shape-rendering="crispEdges"/><rect fill="#272727" x="12.2" y="99.1" width="48.8" height="24.65" shape-rendering="crispEdges"/><rect fill="#272727" x="61" y="99.1" width="12.2" height="24.65" shape-rendering="crispEdges"/><rect fill="#272727" x="73.2" y="99.1" width="24.4" height="24.65" shape-rendering="crispEdges"/><rect fill="#272727" x="97.6" y="99.1" width="12.2" height="24.65" shape-rendering="crispEdges"/><rect fill="#272727" x="109.8" y="99.1" width="24.4" height="24.65" shape-rendering="crispEdges"/><rect fill="#272727" x="134.2" y="99.1" width="12.2" height="24.65" shape-rendering="crispEdges"/><rect fill="#272727" x="146.4" y="99.1" width="97.6" height="24.65" shape-rendering="crispEdges"/><rect fill="#272727" x="244" y="99.1" width="12.2" height="24.65" shape-rendering="crispEdges"/><rect fill="#272727" x="256.2" y="99.1" width="61" height="24.65" shape-rendering="crispEdges"/><rect fill="#272727" x="317.2" y="99.1" width="12.2" height="24.65" shape-rendering="crispEdges"/><rect fill="#272727" x="329.4" y="99.1" width="12.2" height="24.65" shape-rendering="crispEdges"/><rect fill="#272727" x="341.6" y="99.1" width="48.8" height="24.65" shape-rendering="crispEdges"/><rect fill="#272727" x="390.4" y="99.1" width="61" height="24.65" shape-rendering="crispEdges"/><rect fill="#272727" x="451.4" y="99.1" width="695.4" height="24.65" shape-rendering="crispEdges"/><rect fill="#272727" x="1146.8" y="99.1" width="683.2" height="24.65" shape-rendering="crispEdges"/><rect fill="#272727" x="0" y="123.5" width="12.2" height="24.65" shape-rendering="crispEdges"/><rect fill="#272727" x="12.2" y="123.5" width="48.8" height="24.65" shape-rendering="crispEdges"/><rect fill="#272727" x="61" y="123.5" width="12.2" height="24.65" shape-rendering="crispEdges"/><rect fill="#272727" x="73.2" y="123.5" width="24.4" height="24.65" shape-rendering="crispEdges"/><rect fill="#272727" x="97.6" y="123.5" width="12.2" height="24.65" shape-rendering="crispEdges"/><rect fill="#272727" x="109.8" y="123.5" width="24.4" height="24.65" shape-rendering="crispEdges"/><rect fill="#272727" x="134.2" y="123.5" width="12.2" height="24.65" shape-rendering="crispEdges"/><rect fill="#272727" x="146.4" y="123.5" width="97.6" height="24.65" shape-rendering="crispEdges"/><rect fill="#272727" x="244" y="123.5" width="12.2" height="24.65" shape-rendering="crispEdges"/><rect fill="#272727" x="256.2" y="123.5" width="61" height="24.65" shape-rendering="crispEdges"/><rect fill="#272727" x="317.2" y="123.5" width="12.2" height="24.65" shape-rendering="crispEdges"/><rect fill="#272727" x="329.4" y="123.5" width="12.2" height="24.65" shape-rendering="crispEdges"/><rect fill="#272727" x="341.6" y="123.5" width="48.8" height="24.65" shape-rendering="crispEdges"/><rect fill="#272727" x="390.4" y="123.5" width="61" height="24.65" shape-rendering="crispEdges"/><rect fill="#272727" x="451.4" y="123.5" width="695.4" height="24.65" shape-rendering="crispEdges"/><rect fill="#272727" x="1146.8" y="123.5" width="683.2" height="24.65" shape-rendering="crispEdges"/><rect fill="#272727" x="0" y="147.9" width="12.2" height="24.65" shape-rendering="crispEdges"/><rect fill="#272727" x="12.2" y="147.9" width="48.8" height="24.65" shape-rendering="crispEdges"/><rect fill="#272727" x="61" y="147.9" width="12.2" height="24.65" shape-rendering="crispEdges"/><rect fill="#272727" x="73.2" y="147.9" width="24.4" height="24.65" shape-rendering="crispEdges"/><rect fill="#272727" x="97.6" y="147.9" width="12.2" height="24.65" shape-rendering="crispEdges"/><rect fill="#272727" x="109.8" y="147.9" width="24.4" height="24.65" shape-rendering="crispEdges"/><rect fill="#272727" x="134.2" y="147.9" width="12.2" height="24.65" shape-rendering="crispEdges"/><rect fill="#272727" x="146.4" y="147.9" width="97.6" height="24.65" shape-rendering="crispEdges"/><rect fill="#272727" x="244" y="147.9" width="12.2" height="24.65" shape-rendering="crispEdges"/><rect fill="#272727" x="256.2" y="147.9" width="61" height="24.65" shape-rendering="crispEdges"/><rect fill="#272727" x="317.2" y="147.9" width="12.2" height="24.65" shape-rendering="crispEdges"/><rect fill="#272727" x="329.4" y="147.9" width="12.2" height="24.65" shape-rendering="crispEdges"/><rect fill="#272727" x="341.6" y="147.9" width="97.6" height="24.65" shape-rendering="crispEdges"/><rect fill="#272727" x="439.2" y="147.9" width="12.2" height="24.65" shape-rendering="crispEdges"/><rect fill="#272727" x="451.4" y="147.9" width="695.4" height="24.65" shape-rendering="crispEdges"/><rect fill="#272727" x="1146.8" y="147.9" width="683.2" height="24.65" shape-rendering="crispEdges"/><rect fill="#272727" x="0" y="172.3" width="12.2" height="24.65" shape-rendering="crispEdges"/><rect fill="#272727" x="12.2" y="172.3" width="48.8" height="24.65" shape-rendering="crispEdges"/><rect fill="#272727" x="61" y="172.3" width="12.2" height="24.65" shape-rendering="crispEdges"/><rect fill="#272727" x="73.2" y="172.3" width="24.4" height="24.65" shape-rendering="crispEdges"/><rect fill="#272727" x="97.6" y="172.3" width="12.2" height="24.65" shape-rendering="crispEdges"/><rect fill="#272727" x="109.8" y="172.3" width="24.4" height="24.65" shape-rendering="crispEdges"/><rect fill="#272727" x="134.2" y="172.3" width="12.2" height="24.65" shape-rendering="crispEdges"/><rect fill="#272727" x="146.4" y="172.3" width="97.6" height="24.65" shape-rendering="crispEdges"/><rect fill="#272727" x="244" y="172.3" width="12.2" height="24.65" shape-rendering="crispEdges"/><rect fill="#272727" x="256.2" y="172.3" width="61" height="24.65" shape-rendering="crispEdges"/><rect fill="#272727" x="317.2" y="172.3" width="12.2" height="24.65" shape-rendering="crispEdges"/><rect fill="#272727" x="329.4" y="172.3" width="12.2" height="24.65" shape-rendering="crispEdges"/><rect fill="#272727" x="341.6" y="172.3" width="85.4" height="24.65" shape-rendering="crispEdges"/><rect fill="#272727" x="427" y="172.3" width="24.4" height="24.65" shape-rendering="crispEdges"/><rect fill="#272727" x="451.4" y="172.3" width="695.4" height="24.65" shape-rendering="crispEdges"/><rect fill="#272727" x="1146.8" y="172.3" width="683.2" height="24.65" shape-rendering="crispEdges"/><rect fill="#272727" x="0" y="196.7" width="12.2" height="24.65" shape-rendering="crispEdges"/><rect fill="#272727" x="12.2" y="196.7" width="48.8" height="24.65" shape-rendering="crispEdges"/><rect fill="#272727" x="61" y="196.7" width="12.2" height="24.65" shape-rendering="crispEdges"/><rect fill="#272727" x="73.2" y="196.7" width="24.4" height="24.65" shape-rendering="crispEdges"/><rect fill="#272727" x="97.6" y="196.7" width="12.2" height="24.65" shape-rendering="crispEdges"/><rect fill="#272727" x="109.8" y="196.7" width="24.4" height="24.65" shape-rendering="crispEdges"/><rect fill="#272727" x="134.2" y="196.7" width="12.2" height="24.65" shape-rendering="crispEdges"/><rect fill="#272727" x="146.4" y="196.7" width="97.6" height="24.65" shape-rendering="crispEdges"/><rect fill="#272727" x="244" y="196.7" width="12.2" height="24.65" shape-rendering="crispEdges"/><rect fill="#272727" x="256.2" y="196.7" width="61" height="24.65" shape-rendering="crispEdges"/><rect fill="#272727" x="317.2" y="196.7" width="12.2" height="24.65" shape-rendering="crispEdges"/><rect fill="#272727" x="329.4" y="196.7" width="12.2" height="24.65" shape-rendering="crispEdges"/><rect fill="#272727" x="341.6" y="196.7" width="48.8" height="24.65" shape-rendering="crispEdges"/><rect fill="#272727" x="390.4" y="196.7" width="61" height="24.65" shape-rendering="crispEdges"/><rect fill="#272727" x="451.4" y="196.7" width="695.4" height="24.65" shape-rendering="crispEdges"/><rect fill="#272727" x="1146.8" y="196.7" width="683.2" height="24.65" shape-rendering="crispEdges"/><rect fill="#272727" x="0" y="221.1" width="12.2" height="24.65" shape-rendering="crispEdges"/><rect fill="#272727" x="12.2" y="221.1" width="48.8" height="24.65" shape-rendering="crispEdges"/><rect fill="#272727" x="61" y="221.1" width="12.2" height="24.65" shape-rendering="crispEdges"/><rect fill="#272727" x="73.2" y="221.1" width="24.4" height="24.65" shape-rendering="crispEdges"/><rect fill="#272727" x="97.6" y="221.1" width="12.2" height="24.65" shape-rendering="crispEdges"/><rect fill="#272727" x="109.8" y="221.1" width="24.4" height="24.65" shape-rendering="crispEdges"/><rect fill="#272727" x="134.2" y="221.1" width="12.2" height="24.65" shape-rendering="crispEdges"/><rect fill="#272727" x="146.4" y="221.1" width="97.6" height="24.65" shape-rendering="crispEdges"/><rect fill="#272727" x="244" y="221.1" width="12.2" height="24.65" shape-rendering="crispEdges"/><rect fill="#272727" x="256.2" y="221.1" width="61" height="24.65" shape-rendering="crispEdges"/><rect fill="#272727" x="317.2" y="221.1" width="12.2" height="24.65" shape-rendering="crispEdges"/><rect fill="#272727" x="329.4" y="221.1" width="12.2" height="24.65" shape-rendering="crispEdges"/><rect fill="#272727" x="341.6" y="221.1" width="48.8" height="24.65" shape-rendering="crispEdges"/><rect fill="#272727" x="390.4" y="221.1" width="61" height="24.65" shape-rendering="crispEdges"/><rect fill="#272727" x="451.4" y="221.1" width="427" height="24.65" shape-rendering="crispEdges"/><rect fill="#272727" x="878.4" y="221.1" width="24.4" height="24.65" shape-rendering="crispEdges"/><rect fill="#272727" x="902.8" y="221.1" width="244" height="24.65" shape-rendering="crispEdges"/><rect fill="#272727" x="1146.8" y="221.1" width="683.2" height="24.65" shape-rendering="crispEdges"/><rect fill="#272727" x="0" y="245.5" width="12.2" height="24.65" shape-rendering="crispEdges"/><rect fill="#272727" x="12.2" y="245.5" width="48.8" height="24.65" shape-rendering="crispEdges"/><rect fill="#272727" x="61" y="245.5" width="12.2" height="24.65" shape-rendering="crispEdges"/><rect fill="#272727" x="73.2" y="245.5" width="24.4" height="24.65" shape-rendering="crispEdges"/><rect fill="#272727" x="97.6" y="245.5" width="12.2" height="24.65" shape-rendering="crispEdges"/><rect fill="#272727" x="109.8" y="245.5" width="24.4" height="24.65" shape-rendering="crispEdges"/><rect fill="#272727" x="134.2" y="245.5" width="12.2" height="24.65" shape-rendering="crispEdges"/><rect fill="#272727" x="146.4" y="245.5" width="97.6" height="24.65" shape-rendering="crispEdges"/><rect fill="#272727" x="244" y="245.5" width="12.2" height="24.65" shape-rendering="crispEdges"/><rect fill="#272727" x="256.2" y="245.5" width="61" height="24.65" shape-rendering="crispEdges"/><rect fill="#272727" x="317.2" y="245.5" width="12.2" height="24.65" shape-rendering="crispEdges"/><rect fill="#272727" x="329.4" y="245.5" width="12.2" height="24.65" shape-rendering="crispEdges"/><rect fill="#272727" x="341.6" y="245.5" width="48.8" height="24.65" shape-rendering="crispEdges"/><rect fill="#272727" x="390.4" y="245.5" width="61" height="24.65" shape-rendering="crispEdges"/><rect fill="#272727" x="451.4" y="245.5" width="317.2" height="24.65" shape-rendering="crispEdges"/><rect fill="#272727" x="768.6" y="245.5" width="24.4" height="24.65" shape-rendering="crispEdges"/><rect fill="#272727" x="793" y="245.5" width="353.8" height="24.65" shape-rendering="crispEdges"/><rect fill="#272727" x="1146.8" y="245.5" width="683.2" height="24.65" shape-rendering="crispEdges"/><rect fill="#272727" x="0" y="269.9" width="12.2" height="24.65" shape-rendering="crispEdges"/><rect fill="#272727" x="12.2" y="269.9" width="48.8" height="24.65" shape-rendering="crispEdges"/><rect fill="#272727" x="61" y="269.9" width="12.2" height="24.65" shape-rendering="crispEdges"/><rect fill="#272727" x="73.2" y="269.9" width="24.4" height="24.65" shape-rendering="crispEdges"/><rect fill="#272727" x="97.6" y="269.9" width="12.2" height="24.65" shape-rendering="crispEdges"/><rect fill="#272727" x="109.8" y="269.9" width="24.4" height="24.65" shape-rendering="crispEdges"/><rect fill="#272727" x="134.2" y="269.9" width="12.2" height="24.65" shape-rendering="crispEdges"/><rect fill="#272727" x="146.4" y="269.9" width="97.6" height="24.65" shape-rendering="crispEdges"/><rect fill="#272727" x="244" y="269.9" width="12.2" height="24.65" shape-rendering="crispEdges"/><rect fill="#272727" x="256.2" y="269.9" width="61" height="24.65" shape-rendering="crispEdges"/><rect fill="#272727" x="317.2" y="269.9" width="12.2" height="24.65" shape-rendering="crispEdges"/><rect fill="#272727" x="329.4" y="269.9" width="12.2" height="24.65" shape-rendering="crispEdges"/><rect fill="#272727" x="341.6" y="269.9" width="61" height="24.65" shape-rendering="crispEdges"/><rect fill="#272727" x="402.6" y="269.9" width="48.8" height="24.65" shape-rendering="crispEdges"/><rect fill="#272727" x="451.4" y="269.9" width="695.4" height="24.65" shape-rendering="crispEdges"/><rect fill="#272727" x="1146.8" y="269.9" width="683.2" height="24.65" shape-rendering="crispEdges"/><rect fill="#272727" x="0" y="294.3" width="12.2" height="24.65" shape-rendering="crispEdges"/><rect fill="#272727" x="12.2" y="294.3" width="48.8" height="24.65" shape-rendering="crispEdges"/><rect fill="#272727" x="61" y="294.3" width="12.2" height="24.65" shape-rendering="crispEdges"/><rect fill="#272727" x="73.2" y="294.3" width="24.4" height="24.65" shape-rendering="crispEdges"/><rect fill="#272727" x="97.6" y="294.3" width="12.2" height="24.65" shape-rendering="crispEdges"/><rect fill="#272727" x="109.8" y="294.3" width="24.4" height="24.65" shape-rendering="crispEdges"/><rect fill="#272727" x="134.2" y="294.3" width="12.2" height="24.65" shape-rendering="crispEdges"/><rect fill="#272727" x="146.4" y="294.3" width="97.6" height="24.65" shape-rendering="crispEdges"/><rect fill="#272727" x="244" y="294.3" width="12.2" height="24.65" shape-rendering="crispEdges"/><rect fill="#272727" x="256.2" y="294.3" width="61" height="24.65" shape-rendering="crispEdges"/><rect fill="#272727" x="317.2" y="294.3" width="12.2" height="24.65" shape-rendering="crispEdges"/><rect fill="#272727" x="329.4" y="294.3" width="12.2" height="24.65" shape-rendering="crispEdges"/><rect fill="#272727" x="341.6" y="294.3" width="48.8" height="24.65" shape-rendering="crispEdges"/><rect fill="#272727" x="390.4" y="294.3" width="61" height="24.65" shape-rendering="crispEdges"/><rect fill="#272727" x="451.4" y="294.3" width="195.2" height="24.65" shape-rendering="crispEdges"/><rect fill="#272727" x="646.6" y="294.3" width="146.4" height="24.65" shape-rendering="crispEdges"/><rect fill="#272727" x="793" y="294.3" width="353.8" height="24.65" shape-rendering="crispEdges"/><rect fill="#272727" x="1146.8" y="294.3" width="683.2" height="24.65" shape-rendering="crispEdges"/><rect fill="#121212" x="0" y="318.7" width="1830" height="24.65" shape-rendering="crispEdges"/><rect fill="#121212" x="0" y="343.1" width="1830" height="24.65" shape-rendering="crispEdges"/><rect fill="#121212" x="0" y="367.5" width="1830" height="24.65" shape-rendering="crispEdges"/><rect fill="#121212" x="0" y="391.9" width="1830" height="24.65" shape-rendering="crispEdges"/><rect fill="#121212" x="0" y="416.3" width="1830" height="24.65" shape-rendering="crispEdges"/><rect fill="#121212" x="0" y="440.7" width="1830" height="24.65" shape-rendering="crispEdges"/><rect fill="#121212" x="0" y="465.1" width="1830" height="24.65" shape-rendering="crispEdges"/><rect fill="#242f38" x="0" y="489.5" width="61" height="24.65" shape-rendering="crispEdges"/><rect fill="#242f38" x="61" y="489.5" width="61" height="24.65" shape-rendering="crispEdges"/><rect fill="#242f38" x="122" y="489.5" width="1561.6" height="24.65" shape-rendering="crispEdges"/><rect fill="#242f38" x="1683.6" y="489.5" width="12.2" height="24.65" shape-rendering="crispEdges"/><rect fill="#242f38" x="1695.8" y="489.5" width="24.4" height="24.65" shape-rendering="crispEdges"/><rect fill="#242f38" x="1720.2" y="489.5" width="97.6" height="24.65" shape-rendering="crispEdges"/><rect fill="#242f38" x="1817.8" y="489.5" width="12.2" height="24.65" shape-rendering="crispEdges"/>
    <g class="terminal-115756718-matrix">
    <text class="terminal-115756718-r2" x="12.2" y="20" textLength="12.2" clip-path="url(#terminal-115756718-line-0)">⭘</text><text class="terminal-115756718-r2" x="573.4" y="20" textLength="85.4" clip-path="url(#terminal-115756718-line-0)">LogTerm</text><text class="terminal-115756718-r3" x="658.8" y="20" textLength="36.6" clip-path="url(#terminal-115756718-line-0)">&#160;—&#160;</text><text class="terminal-115756718-r3" x="695.4" y="20" textLength="524.6" clip-path="url(#terminal-115756718-line-0)">C:\Users\Joel_\Documents\logterm\progam.log</text><text class="terminal-115756718-r1" x="1830" y="20" textLength="12.2" clip-path="url(#terminal-115756718-line-0)">
</text><text class="terminal-115756718-r4" x="0" y="44.4" textLength="329.4" clip-path="url(#terminal-115756718-line-1)">&#160;datetime&#160;&#160;&#160;&#160;&#160;&#160;&#160;&#160;&#160;&#160;&#160;&#160;&#160;&#160;&#160;&#160;&#160;&#160;</text><text class="terminal-115756718-r4" x="329.4" y="44.4" textLength="122" clip-path="url(#terminal-115756718-line-1)">&#160;level&#160;&#160;&#160;&#160;</text><text class="terminal-115756718-r4" x="451.4" y="44.4" textLength="695.4" clip-path="url(#terminal-115756718-line-1)">&#160;event&#160;&#160;&#160;&#160;&#160;&#160;&#160;&#160;&#160;&#160;&#160;&#160;&#160;&#160;&#160;&#160;&#160;&#160;&#160;&#160;&#160;&#160;&#160;&#160;&#160;&#160;&#160;&#160;&#160;&#160;&#160;&#160;&#160;&#160;&#160;&#160;&#160;&#160;&#160;&#160;&#160;&#160;&#160;&#160;&#160;&#160;&#160;&#160;&#160;&#160;&#160;</text><text class="terminal-115756718-r1" x="1830" y="44.4" textLength="12.2" clip-path="url(#terminal-115756718-line-1)">
</text><text class="terminal-115756718-r5" x="12.2" y="68.8" textLength="48.8" clip-path="url(#terminal-115756718-line-2)">2026</text><text class="terminal-115756718-r2" x="61" y="68.8" textLength="12.2" clip-path="url(#terminal-115756718-line-2)">-</text><text class="terminal-115756718-r5" x="73.2" y="68.8" textLength="24.4" clip-path="url(#terminal-115756718-line-2)">04</text><text class="terminal-115756718-r2" x="97.6" y="68.8" textLength="12.2" clip-path="url(#terminal-115756718-line-2)">-</text><text class="terminal-115756718-r5" x="109.8" y="68.8" textLength="24.4" clip-path="url(#terminal-115756718-line-2)">25</text><text class="terminal-115756718-r6" x="146.4" y="68.8" textLength="97.6" clip-path="url(#terminal-115756718-line-2)">10:00:01</text><text class="terminal-115756718-r2" x="244" y="68.8" textLength="12.2" clip-path="url(#terminal-115756718-line-2)">+</text><text class="terminal-115756718-r6" x="256.2" y="68.8" textLength="61" clip-path="url(#terminal-115756718-line-2)">02:00</text><text class="terminal-115756718-r7" x="341.6" y="68.8" textLength="48.8" clip-path="url(#terminal-115756718-line-2)">info</text><text class="terminal-115756718-r2" x="451.4" y="68.8" textLength="195.2" clip-path="url(#terminal-115756718-line-2)">&#160;Sequencing&#160;run&#160;</text><text class="terminal-115756718-r7" x="646.6" y="68.8" textLength="146.4" clip-path="url(#terminal-115756718-line-2)">&#x27;GEX_9921_B&#x27;</text><text class="terminal-115756718-r2" x="793" y="68.8" textLength="353.8" clip-path="url(#terminal-115756718-line-2)">&#160;initialized&#160;&#160;&#160;&#160;&#160;&#160;&#160;&#160;&#160;&#160;&#160;&#160;&#160;&#160;&#160;&#160;&#160;</text><text class="terminal-115756718-r1" x="1830" y="68.8" textLength="12.2" clip-path="url(#terminal-115756718-line-2)">
</text><text class="terminal-115756718-r8" x="12.2" y="93.2" textLength="48.8" clip-path="url(#terminal-115756718-line-3)">2026</text><text class="terminal-115756718-r8" x="61" y="93.2" textLength="12.2" clip-path="url(#terminal-115756718-line-3)">-</text><text class="terminal-115756718-r8" x="73.2" y="93.2" textLength="24.4" clip-path="url(#terminal-115756718-line-3)">04</text><text class="terminal-115756718-r8" x="97.6" y="93.2" textLength="12.2" clip-path="url(#terminal-115756718-line-3)">-</text><text class="terminal-115756718-r8" x="109.8" y="93.2" textLength="24.4" clip-path="url(#terminal-115756718-line-3)">25</text><text class="terminal-115756718-r8" x="134.2" y="93.2" textLength="195.2" clip-path="url(#terminal-115756718-line-3)">&#160;10:05:22+02:00&#160;</text><text class="terminal-115756718-r9" x="341.6" y="93.2" textLength="61" clip-path="url(#terminal-115756718-line-3)">debug</text><text class="terminal-115756718-r8" x="451.4" y="93.2" textLength="695.4" clip-path="url(#terminal-115756718-line-3)">&#160;Loading&#160;reagents&#160;and&#160;verifying&#160;flow&#160;cell&#160;vacuum&#160;&#160;&#160;&#160;&#160;&#160;&#160;&#160;&#160;</text><text class="terminal-115756718-r1" x="1830" y="93.2" textLength="12.2" clip-path="url(#terminal-115756718-line-3)">
</text><text class="terminal-115756718-r5" x="12.2" y="117.6" textLength="48.8" clip-path="url(#terminal-115756718-line-4)">2026</text><text class="terminal-115756718-r2" x="61" y="117.6" textLength="12.2" clip-path="url(#terminal-115756718-line-4)">-</text><text class="terminal-115756718-r5" x="73.2" y="117.6" textLength="24.4" clip-path="url(#terminal-115756718-line-4)">04</text><text class="terminal-115756718-r2" x="97.6" y="117.6" textLength="12.2" clip-path="url(#terminal-115756718-line-4)">-</text><text class="terminal-115756718-r5" x="109.8" y="117.6" textLength="24.4" clip-path="url(#terminal-115756718-line-4)">25</text><text class="terminal-115756718-r6" x="146.4" y="117.6" textLength="97.6" clip-path="url(#terminal-115756718-line-4)">10:15:10</text><text class="terminal-115756718-r2" x="244" y="117.6" textLength="12.2" clip-path="url(#terminal-115756718-line-4)">+</text><text class="terminal-115756718-r6" x="256.2" y="117.6" textLength="61" clip-path="url(#terminal-115756718-line-4)">02:00</text><text class="terminal-115756718-r7" x="341.6" y="117.6" textLength="48.8" clip-path="url(#terminal-115756718-line-4)">info</text><text class="terminal-115756718-r2" x="451.4" y="117.6" textLength="695.4" clip-path="url(#terminal-115756718-line-4)">&#160;Cluster&#160;generation&#160;started&#160;on&#160;flow&#160;cell&#160;surface&#160;&#160;&#160;&#160;&#160;&#160;&#160;&#160;&#160;</text><text class="terminal-115756718-r1" x="1830" y="117.6" textLength="12.2" clip-path="url(#terminal-115756718-line-4)">
</text><text class="terminal-115756718-r5" x="12.2" y="142" textLength="48.8" clip-path="url(#terminal-115756718-line-5)">2026</text><text class="terminal-115756718-r2" x="61" y="142" textLength="12.2" clip-path="url(#terminal-115756718-line-5)">-</text><text class="terminal-115756718-r5" x="73.2" y="142" textLength="24.4" clip-path="url(#terminal-115756718-line-5)">04</text><text class="terminal-115756718-r2" x="97.6" y="142" textLength="12.2" clip-path="url(#terminal-115756718-line-5)">-</text><text class="terminal-115756718-r5" x="109.8" y="142" textLength="24.4" clip-path="url(#terminal-115756718-line-5)">25</text><text class="terminal-115756718-r6" x="146.4" y="142" textLength="97.6" clip-path="url(#terminal-115756718-line-5)">12:12:45</text><text class="terminal-115756718-r2" x="244" y="142" textLength="12.2" clip-path="url(#terminal-115756718-line-5)">+</text><text class="terminal-115756718-r6" x="256.2" y="142" textLength="61" clip-path="url(#terminal-115756718-line-5)">02:00</text><text class="terminal-115756718-r7" x="341.6" y="142" textLength="48.8" clip-path="url(#terminal-115756718-line-5)">info</text><text class="terminal-115756718-r2" x="451.4" y="142" textLength="695.4" clip-path="url(#terminal-115756718-line-5)">&#160;Real-time&#160;analysis:&#160;Q-score&#160;within&#160;threshold&#160;&#160;&#160;&#160;&#160;&#160;&#160;&#160;&#160;&#160;&#160;&#160;</text><text class="terminal-115756718-r1" x="1830" y="142" textLength="12.2" clip-path="url(#terminal-115756718-line-5)">
</text><text class="terminal-115756718-r5" x="12.2" y="166.4" textLength="48.8" clip-path="url(#terminal-115756718-line-6)">2026</text><text class="terminal-115756718-r2" x="61" y="166.4" textLength="12.2" clip-path="url(#terminal-115756718-line-6)">-</text><text class="terminal-115756718-r5" x="73.2" y="166.4" textLength="24.4" clip-path="url(#terminal-115756718-line-6)">04</text><text class="terminal-115756718-r2" x="97.6" y="166.4" textLength="12.2" clip-path="url(#terminal-115756718-line-6)">-</text><text class="terminal-115756718-r5" x="109.8" y="166.4" textLength="24.4" clip-path="url(#terminal-115756718-line-6)">25</text><text class="terminal-115756718-r6" x="146.4" y="166.4" textLength="97.6" clip-path="url(#terminal-115756718-line-6)">13:45:33</text><text class="terminal-115756718-r2" x="244" y="166.4" textLength="12.2" clip-path="url(#terminal-115756718-line-6)">+</text><text class="terminal-115756718-r6" x="256.2" y="166.4" textLength="61" clip-path="url(#terminal-115756718-line-6)">02:00</text><text class="terminal-115756718-r10" x="341.6" y="166.4" textLength="97.6" clip-path="url(#terminal-115756718-line-6)">critical</text><text class="terminal-115756718-r2" x="451.4" y="166.4" textLength="695.4" clip-path="url(#terminal-115756718-line-6)">&#160;A&#160;critical&#160;exception&#160;occurred!&#160;&#160;&#160;&#160;&#160;&#160;&#160;&#160;&#160;&#160;&#160;&#160;&#160;&#160;&#160;&#160;&#160;&#160;&#160;&#160;&#160;&#160;&#160;&#160;&#160;&#160;</text><text class="terminal-115756718-r1" x="1830" y="166.4" textLength="12.2" clip-path="url(#terminal-115756718-line-6)">
</text><text class="terminal-115756718-r5" x="12.2" y="190.8" textLength="48.8" clip-path="url(#terminal-115756718-line-7)">2026</text><text class="terminal-115756718-r2" x="61" y="190.8" textLength="12.2" clip-path="url(#terminal-115756718-line-7)">-</text><text class="terminal-115756718-r5" x="73.2" y="190.8" textLength="24.4" clip-path="url(#terminal-115756718-line-7)">04</text><text class="terminal-115756718-r2" x="97.6" y="190.8" textLength="12.2" clip-path="url(#terminal-115756718-line-7)">-</text><text class="terminal-115756718-r5" x="109.8" y="190.8" textLength="24.4" clip-path="url(#terminal-115756718-line-7)">25</text><text class="terminal-115756718-r6" x="146.4" y="190.8" textLength="97.6" clip-path="url(#terminal-115756718-line-7)">13:45:34</text><text class="terminal-115756718-r2" x="244" y="190.8" textLength="12.2" clip-path="url(#terminal-115756718-line-7)">+</text><text class="terminal-115756718-r6" x="256.2" y="190.8" textLength="61" clip-path="url(#terminal-115756718-line-7)">02:00</text><text class="terminal-115756718-r11" x="341.6" y="190.8" textLength="85.4" clip-path="url(#terminal-115756718-line-7)">warning</text><text class="terminal-115756718-r2" x="451.4" y="190.8" textLength="695.4" clip-path="url(#terminal-115756718-line-7)">&#160;Emergency&#160;Pause&#160;engaged&#160;by&#160;system&#160;monitor&#160;&#160;&#160;&#160;&#160;&#160;&#160;&#160;&#160;&#160;&#160;&#160;&#160;&#160;&#160;</text><text class="terminal-115756718-r1" x="1830" y="190.8" textLength="12.2" clip-path="url(#terminal-115756718-line-7)">
</text><text class="terminal-115756718-r5" x="12.2" y="215.2" textLength="48.8" clip-path="url(#terminal-115756718-line-8)">2026</text><text class="terminal-115756718-r2" x="61" y="215.2" textLength="12.2" clip-path="url(#terminal-115756718-line-8)">-</text><text class="terminal-115756718-r5" x="73.2" y="215.2" textLength="24.4" clip-path="url(#terminal-115756718-line-8)">04</text><text class="terminal-115756718-r2" x="97.6" y="215.2" textLength="12.2" clip-path="url(#terminal-115756718-line-8)">-</text><text class="terminal-115756718-r5" x="109.8" y="215.2" textLength="24.4" clip-path="url(#terminal-115756718-line-8)">25</text><text class="terminal-115756718-r6" x="146.4" y="215.2" textLength="97.6" clip-path="url(#terminal-115756718-line-8)">13:52:10</text><text class="terminal-115756718-r2" x="244" y="215.2" textLength="12.2" clip-path="url(#terminal-115756718-line-8)">+</text><text class="terminal-115756718-r6" x="256.2" y="215.2" textLength="61" clip-path="url(#terminal-115756718-line-8)">02:00</text><text class="terminal-115756718-r7" x="341.6" y="215.2" textLength="48.8" clip-path="url(#terminal-115756718-line-8)">info</text><text class="terminal-115756718-r2" x="451.4" y="215.2" textLength="695.4" clip-path="url(#terminal-115756718-line-8)">&#160;Manual&#160;override&#160;initiated:&#160;Re-seating&#160;reagent&#160;cartridge&#160;</text><text class="terminal-115756718-r1" x="1830" y="215.2" textLength="12.2" clip-path="url(#terminal-115756718-line-8)">
</text><text class="terminal-115756718-r5" x="12.2" y="239.6" textLength="48.8" clip-path="url(#terminal-115756718-line-9)">2026</text><text class="terminal-115756718-r2" x="61" y="239.6" textLength="12.2" clip-path="url(#terminal-115756718-line-9)">-</text><text class="terminal-115756718-r5" x="73.2" y="239.6" textLength="24.4" clip-path="url(#terminal-115756718-line-9)">04</text><text class="terminal-115756718-r2" x="97.6" y="239.6" textLength="12.2" clip-path="url(#terminal-115756718-line-9)">-</text><text class="terminal-115756718-r5" x="109.8" y="239.6" textLength="24.4" clip-path="url(#terminal-115756718-line-9)">25</text><text class="terminal-115756718-r6" x="146.4" y="239.6" textLength="97.6" clip-path="url(#terminal-115756718-line-9)">13:55:02</text><text class="terminal-115756718-r2" x="244" y="239.6" textLength="12.2" clip-path="url(#terminal-115756718-line-9)">+</text><text class="terminal-115756718-r6" x="256.2" y="239.6" textLength="61" clip-path="url(#terminal-115756718-line-9)">02:00</text><text class="terminal-115756718-r7" x="341.6" y="239.6" textLength="48.8" clip-path="url(#terminal-115756718-line-9)">info</text><text class="terminal-115756718-r2" x="451.4" y="239.6" textLength="427" clip-path="url(#terminal-115756718-line-9)">&#160;Pressure&#160;restored;&#160;resuming&#160;cycle&#160;</text><text class="terminal-115756718-r5" x="878.4" y="239.6" textLength="24.4" clip-path="url(#terminal-115756718-line-9)">46</text><text class="terminal-115756718-r1" x="1830" y="239.6" textLength="12.2" clip-path="url(#terminal-115756718-line-9)">
</text><text class="terminal-115756718-r5" x="12.2" y="264" textLength="48.8" clip-path="url(#terminal-115756718-line-10)">2026</text><text class="terminal-115756718-r2" x="61" y="264" textLength="12.2" clip-path="url(#terminal-115756718-line-10)">-</text><text class="terminal-115756718-r5" x="73.2" y="264" textLength="24.4" clip-path="url(#terminal-115756718-line-10)">04</text><text class="terminal-115756718-r2" x="97.6" y="264" textLength="12.2" clip-path="url(#terminal-115756718-line-10)">-</text><text class="terminal-115756718-r5" x="109.8" y="264" textLength="24.4" clip-path="url(#terminal-115756718-line-10)">25</text><text class="terminal-115756718-r6" x="146.4" y="264" textLength="97.6" clip-path="url(#terminal-115756718-line-10)">20:20:15</text><text class="terminal-115756718-r2" x="244" y="264" textLength="12.2" clip-path="url(#terminal-115756718-line-10)">+</text><text class="terminal-115756718-r6" x="256.2" y="264" textLength="61" clip-path="url(#terminal-115756718-line-10)">02:00</text><text class="terminal-115756718-r7" x="341.6" y="264" textLength="48.8" clip-path="url(#terminal-115756718-line-10)">info</text><text class="terminal-115756718-r2" x="451.4" y="264" textLength="317.2" clip-path="url(#terminal-115756718-line-10)">&#160;Base&#160;calling&#160;progress&#160;at&#160;</text><text class="terminal-115756718-r5" x="768.6" y="264" textLength="24.4" clip-path="url(#terminal-115756718-line-10)">50</text><text class="terminal-115756718-r2" x="793" y="264" textLength="353.8" clip-path="url(#terminal-115756718-line-10)">%&#160;&#160;&#160;&#160;&#160;&#160;&#160;&#160;&#160;&#160;&#160;&#160;&#160;&#160;&#160;&#160;&#160;&#160;&#160;&#160;&#160;&#160;&#160;&#160;&#160;&#160;&#160;&#160;</text><text class="terminal-115756718-r1" x="1830" y="264" textLength="12.2" clip-path="url(#terminal-115756718-line-10)">
</text><text class="terminal-115756718-r5" x="12.2" y="288.4" textLength="48.8" clip-path="url(#terminal-115756718-line-11)">2026</text><text class="terminal-115756718-r2" x="61" y="288.4" textLength="12.2" clip-path="url(#terminal-115756718-line-11)">-</text><text class="terminal-115756718-r5" x="73.2" y="288.4" textLength="24.4" clip-path="url(#terminal-115756718-line-11)">04</text><text class="terminal-115756718-r2" x="97.6" y="288.4" textLength="12.2" clip-path="url(#terminal-115756718-line-11)">-</text><text class="terminal-115756718-r5" x="109.8" y="288.4" textLength="24.4" clip-path="url(#terminal-115756718-line-11)">25</text><text class="terminal-115756718-r6" x="146.4" y="288.4" textLength="97.6" clip-path="url(#terminal-115756718-line-11)">22:11:42</text><text class="terminal-115756718-r2" x="244" y="288.4" textLength="12.2" clip-path="url(#terminal-115756718-line-11)">+</text><text class="terminal-115756718-r6" x="256.2" y="288.4" textLength="61" clip-path="url(#terminal-115756718-line-11)">02:00</text><text class="terminal-115756718-r12" x="341.6" y="288.4" textLength="61" clip-path="url(#terminal-115756718-line-11)">error</text><text class="terminal-115756718-r2" x="451.4" y="288.4" textLength="695.4" clip-path="url(#terminal-115756718-line-11)">&#160;Non-fatal&#160;data&#160;error:&#160;Retrying&#160;tile&#160;write&#160;&#160;&#160;&#160;&#160;&#160;&#160;&#160;&#160;&#160;&#160;&#160;&#160;&#160;&#160;</text><text class="terminal-115756718-r1" x="1830" y="288.4" textLength="12.2" clip-path="url(#terminal-115756718-line-11)">
</text><text class="terminal-115756718-r5" x="12.2" y="312.8" textLength="48.8" clip-path="url(#terminal-115756718-line-12)">2026</text><text class="terminal-115756718-r2" x="61" y="312.8" textLength="12.2" clip-path="url(#terminal-115756718-line-12)">-</text><text class="terminal-115756718-r5" x="73.2" y="312.8" textLength="24.4" clip-path="url(#terminal-115756718-line-12)">04</text><text class="terminal-115756718-r2" x="97.6" y="312.8" textLength="12.2" clip-path="url(#terminal-115756718-line-12)">-</text><text class="terminal-115756718-r5" x="109.8" y="312.8" textLength="24.4" clip-path="url(#terminal-115756718-line-12)">26</text><text class="terminal-115756718-r6" x="146.4" y="312.8" textLength="97.6" clip-path="url(#terminal-115756718-line-12)">06:30:12</text><text class="terminal-115756718-r2" x="244" y="312.8" textLength="12.2" clip-path="url(#terminal-115756718-line-12)">+</text><text class="terminal-115756718-r6" x="256.2" y="312.8" textLength="61" clip-path="url(#terminal-115756718-line-12)">02:00</text><text class="terminal-115756718-r7" x="341.6" y="312.8" textLength="48.8" clip-path="url(#terminal-115756718-line-12)">info</text><text class="terminal-115756718-r2" x="451.4" y="312.8" textLength="195.2" clip-path="url(#terminal-115756718-line-12)">&#160;Sequencing&#160;run&#160;</text><text class="terminal-115756718-r7" x="646.6" y="312.8" textLength="146.4" clip-path="url(#terminal-115756718-line-12)">&#x27;GEX_9921_B&#x27;</text><text class="terminal-115756718-r2" x="793" y="312.8" textLength="353.8" clip-path="url(#terminal-115756718-line-12)">&#160;completed&#160;successfully&#160;&#160;&#160;&#160;&#160;&#160;</text><text class="terminal-115756718-r1" x="1830" y="312.8" textLength="12.2" clip-path="url(#terminal-115756718-line-12)">
</text><text class="terminal-115756718-r1" x="1830" y="337.2" textLength="12.2" clip-path="url(#terminal-115756718-line-13)">
</text><text class="terminal-115756718-r1" x="1830" y="361.6" textLength="12.2" clip-path="url(#terminal-115756718-line-14)">
</text><text class="terminal-115756718-r1" x="1830" y="386" textLength="12.2" clip-path="url(#terminal-115756718-line-15)">
</text><text class="terminal-115756718-r1" x="1830" y="410.4" textLength="12.2" clip-path="url(#terminal-115756718-line-16)">
</text><text class="terminal-115756718-r1" x="1830" y="434.8" textLength="12.2" clip-path="url(#terminal-115756718-line-17)">
</text><text class="terminal-115756718-r1" x="1830" y="459.2" textLength="12.2" clip-path="url(#terminal-115756718-line-18)">
</text><text class="terminal-115756718-r1" x="1830" y="483.6" textLength="12.2" clip-path="url(#terminal-115756718-line-19)">
</text><text class="terminal-115756718-r13" x="0" y="508" textLength="61" clip-path="url(#terminal-115756718-line-20)">&#160;esc&#160;</text><text class="terminal-115756718-r2" x="61" y="508" textLength="61" clip-path="url(#terminal-115756718-line-20)">Quit&#160;</text><text class="terminal-115756718-r14" x="1683.6" y="508" textLength="12.2" clip-path="url(#terminal-115756718-line-20)">▏</text><text class="terminal-115756718-r13" x="1695.8" y="508" textLength="24.4" clip-path="url(#terminal-115756718-line-20)">^p</text><text class="terminal-115756718-r2" x="1720.2" y="508" textLength="97.6" clip-path="url(#terminal-115756718-line-20)">&#160;palette</text>
    </g>
    </g>
</svg>
